<?xml version="1.0" standalone="no"?>
<!DOCTYPE svg PUBLIC "-//W3C//DTD SVG 20010904//EN"
 "http://www.w3.org/TR/2001/REC-SVG-20010904/DTD/svg10.dtd">
<svg version="1.0" xmlns="http://www.w3.org/2000/svg"
 width="1080.000000pt" height="1080.000000pt" viewBox="0 0 1080.000000 1080.000000"
 preserveAspectRatio="xMidYMid meet">
<metadata>
Created by potrace 1.16, written by Peter Selinger 2001-2019
</metadata>
<g transform="translate(0.000000,1080.000000) scale(0.100000,-0.100000)"
fill="#000000" stroke="none">
<path d="M2050 8575 l0 -165 -165 0 -165 0 0 -335 0 -335 -170 0 -170 0 0
-670 0 -670 840 0 840 0 0 335 0 335 170 0 170 0 0 165 0 165 160 0 160 0 0
-495 0 -495 -165 0 -165 0 0 -165 0 -165 -170 0 -170 0 0 -170 0 -170 -165 0
-165 0 0 -165 0 -165 -165 0 -165 0 0 -165 0 -165 -335 0 -335 0 0 -170 0
-170 -170 0 -170 0 0 -1335 0 -1335 4015 0 4015 0 0 1335 0 1335 -170 0 -170
0 0 170 0 170 -335 0 -335 0 0 165 0 165 -165 0 -165 0 0 165 0 165 -165 0
-165 0 0 170 0 170 -170 0 -170 0 0 165 0 165 -165 0 -165 0 0 495 0 495 160
0 160 0 0 -165 0 -165 170 0 170 0 0 -335 0 -335 840 0 840 0 0 670 0 670
-170 0 -170 0 0 335 0 335 -165 0 -165 0 0 165 0 165 -3345 0 -3345 0 0 -165z
m4680 -1505 l0 -330 -1335 0 -1335 0 0 330 0 330 1335 0 1335 0 0 -330z
m-2670 -2165 l0 -165 -335 0 -335 0 0 165 0 165 335 0 335 0 0 -165z m1000 0
l0 -165 -335 0 -335 0 0 165 0 165 335 0 335 0 0 -165z m1000 0 l0 -165 -330
0 -330 0 0 165 0 165 330 0 330 0 0 -165z m1010 0 l0 -165 -335 0 -335 0 0
165 0 165 335 0 335 0 0 -165z m-3010 -670 l0 -165 -335 0 -335 0 0 165 0 165
163 2 c89 2 240 2 335 0 l172 -3 0 -164z m1000 0 l0 -165 -335 0 -335 0 0 165
0 165 163 2 c89 2 240 2 335 0 l172 -3 0 -164z m1000 0 l0 -165 -330 0 -330 0
0 165 0 165 330 0 330 0 0 -165z m1010 0 l0 -165 -335 0 -335 0 0 165 0 165
335 0 335 0 0 -165z m-3010 -665 l0 -170 -332 2 -333 3 -3 168 -2 167 335 0
335 0 0 -170z m1000 0 l0 -170 -332 2 -333 3 -3 168 -2 167 335 0 335 0 0
-170z m1000 0 l0 -170 -330 0 -330 0 0 170 0 170 330 0 330 0 0 -170z m1008 3
l-3 -168 -332 -3 -333 -2 0 170 0 170 335 0 335 0 -2 -167z"/>
</g>
</svg>
