<?xml version="1.0" standalone="no"?>
<!DOCTYPE svg PUBLIC "-//W3C//DTD SVG 20010904//EN"
 "http://www.w3.org/TR/2001/REC-SVG-20010904/DTD/svg10.dtd">
<svg version="1.0" xmlns="http://www.w3.org/2000/svg"
 width="1080.000000pt" height="1080.000000pt" viewBox="0 0 1080.000000 1080.000000"
 preserveAspectRatio="xMidYMid meet">

<g transform="translate(0.000000,1080.000000) scale(0.100000,-0.100000)"
fill="#000000" stroke="none">
<path d="M3297 8093 c-4 -3 -7 -307 -7 -674 l0 -669 -222 -2 -223 -3 0 -900 0
-900 223 -3 222 -2 0 -225 0 -225 -225 0 -225 0 2 -447 3 -448 222 -3 223 -2
2 -223 3 -222 447 -3 448 -2 2 -453 3 -452 675 -3 c371 -2 879 0 1128 4 l452
6 0 899 0 899 223 2 222 3 3 222 2 223 223 2 222 3 5 225 5 225 223 3 222 2
-2 898 -3 897 -222 3 -223 2 -2 673 -3 672 -447 3 -448 2 0 -225 0 -225 -1355
0 -1355 0 0 225 0 225 -218 0 c-120 0 -222 -3 -225 -7z m445 -3825 l3 -223
223 -3 222 -2 0 -225 0 -225 -222 2 -223 3 -3 222 -2 223 -223 2 -222 3 -3
223 -2 222 225 0 225 0 2 -222z"/>
<path d="M4650 2010 l0 -210 670 0 670 0 0 210 0 210 -670 0 -670 0 0 -210z"/>
</g>
</svg>
