<?xml version="1.0" standalone="no"?>
<!DOCTYPE svg PUBLIC "-//W3C//DTD SVG 20010904//EN"
 "http://www.w3.org/TR/2001/REC-SVG-20010904/DTD/svg10.dtd">
<svg version="1.0" xmlns="http://www.w3.org/2000/svg"
 width="705.000000pt" height="663.000000pt" viewBox="0 0 705.000000 663.000000"
 preserveAspectRatio="xMidYMid meet">

<g transform="translate(0.000000,663.000000) scale(0.100000,-0.100000)"
fill="#000000" stroke="none">
<path d="M0 3315 l0 -3315 3525 0 3525 0 0 3315 0 3315 -3525 0 -3525 0 0
-3315z m2570 -520 l0 -115 -230 0 -230 0 0 115 0 115 230 0 230 0 0 -115z
m678 -3 l3 -112 -228 2 -228 3 -3 99 c-1 55 0 106 2 113 5 11 49 13 228 11
l223 -3 3 -113z m682 3 l0 -115 -225 0 -225 0 0 115 0 115 225 0 225 0 0 -115z
m688 -2 l3 -113 -231 0 -230 0 0 115 0 115 228 -2 227 -3 3 -112z m-2048 -458
l0 -115 -230 0 -230 0 0 115 0 115 230 0 230 0 0 -115z m680 0 l0 -115 -227 2
-228 3 -3 99 c-1 55 0 106 2 113 4 10 53 13 231 13 l225 0 0 -115z m680 0 l0
-115 -225 0 -225 0 0 115 0 115 225 0 225 0 0 -115z m688 3 l-3 -113 -227 -3
-228 -2 0 115 0 115 230 0 231 0 -3 -112z m-2048 -453 l0 -115 -230 0 -230 0
0 115 0 115 230 0 230 0 0 -115z m680 0 l0 -115 -227 2 -228 3 -3 99 c-1 55 0
106 2 113 4 10 53 13 231 13 l225 0 0 -115z m680 0 l0 -115 -225 0 -225 0 0
115 0 115 225 0 225 0 0 -115z m688 -2 l3 -113 -231 0 -230 0 0 115 0 115 228
-2 227 -3 3 -112z"/>
</g>
</svg>
